<?xml version="1.0" encoding="UTF-8"?>
<svg width="135px" height="135px" viewBox="0 0 135 135" version="1.1" xmlns="http://www.w3.org/2000/svg" xmlns:xlink="http://www.w3.org/1999/xlink">
    <!-- Generator: Sketch 50.2 (55047) - http://www.bohemiancoding.com/sketch -->
    <title>Desktop HD</title>
    <desc>Created with Sketch.</desc>
    <defs>
        <path d="M67.1354339,5.22222222 C67.1354339,2.33857639 64.6306762,0 61.5408144,0 L5.5946195,0 C2.50534054,0 4.54747351e-13,2.33857639 4.54747351e-13,5.22222222 L4.54747351e-13,78.3333333 C4.54747351e-13,81.2175231 2.50534054,83.5555556 5.5946195,83.5555556 L61.5408144,83.5555556 C64.6306762,83.5555556 67.1354339,81.2175231 67.1354339,78.3333333 L67.1354339,5.22222222 Z" id="path-1"></path>
    </defs>
    <g id="Desktop-HD" stroke="none" stroke-width="1" fill="none" fill-rule="evenodd">
        <g id="icons/steps/step-3">
            <g id="Group" transform="translate(85.000000, 62.000000) scale(-1, 1) translate(-85.000000, -62.000000) translate(51.000000, 20.000000)">
                <mask id="mask-2" fill="white">
                    <use xlink:href="#path-1"></use>
                </mask>
                <use id="Fill-14" stroke="#89C8D4" fill="#89C8D4" xlink:href="#path-1"></use>
                <polygon id="Fill-15" fill="#94C6EC" mask="url(#mask-2)" points="9.91020273 73.4886212 62.8667853 73.4886212 62.8667853 8.05354752 9.91020273 8.05354752"></polygon>
                <polygon id="Fill-15-Copy" fill="#89C8D4" mask="url(#mask-2)" points="9.91020273 73.4886212 62.8667853 73.4886212 62.8667853 8.05354752 9.91020273 8.05354752"></polygon>
                <path d="M33.890542,75.502008 C35.5454352,75.502008 36.8880844,76.8539823 36.8880844,78.5224029 C36.8880844,80.1895653 35.5454352,81.5421687 33.890542,81.5421687 C32.2350243,81.5421687 30.8929996,80.1895653 30.8929996,78.5224029 C30.8929996,76.8539823 32.2350243,75.502008 33.890542,75.502008" id="Fill-16" fill="#94C6EC" mask="url(#mask-2)"></path>
                <g id="Group-2" mask="url(#mask-2)" fill="#FFFFFF">
                    <g transform="translate(11.847430, 19.894180)">
                        <path d="M5.98759765,9.16091031 L5.98759765,3.17331266 L11.6250809,3.17331266 L11.6250809,9.16091031 L17.6126786,9.16091031 L17.6126786,14.7983936 L11.6250809,14.7983936 L11.6250809,20.7859912 L5.98759765,20.7859912 L5.98759765,14.7983936 L0,14.7983936 L0,9.16091031 L5.98759765,9.16091031 Z" id="Combined-Shape"></path>
                        <rect id="Rectangle" x="23.709375" y="0" width="16.2578571" height="2.81874163"></rect>
                        <rect id="Rectangle-Copy" x="23.709375" y="9.86559572" width="16.2578571" height="2.81874163"></rect>
                        <rect id="Rectangle-Copy-5" x="23.709375" y="19.7311914" width="16.2578571" height="2.81874163"></rect>
                        <rect id="Rectangle-Copy-3" x="0" y="30.5967871" width="39.9672321" height="2.81874163"></rect>
                        <rect id="Rectangle-Copy-4" x="0" y="40.4623829" width="39.9672321" height="2.81874163"></rect>
                    </g>
                </g>
            </g>
            <g id="bottle" transform="translate(17.000000, 29.088889)">
                <path d="M36.0704774,13.519944 C36.2263647,13.0514242 36.5694936,12.7261453 36.9676744,12.7261453 C37.5125341,12.7261453 37.9543123,13.3352118 37.9543123,14.0869269 C37.9543123,14.5727968 37.9492992,15.018898 37.9452261,15.4308499 C37.9287781,17.008885 37.9195831,17.8858576 38.1792765,18.5746354 C38.3418363,18.8623639 38.5155597,19.1446864 38.6996437,19.4171988 C38.9540302,19.7068954 39.2915747,20.0046485 39.7386574,20.3621701 L42.7286496,22.75348 C45.6531584,25.0929177 47.469462,29.4432689 47.469462,34.1070148 L47.469462,78.8736156 C47.469462,81.5770234 45.8756141,83.776406 43.9164376,83.776406 L24.2548028,83.776406 C24.1023508,83.776406 23.9579688,83.7286894 23.8290761,83.643492 C23.7001835,83.7286894 23.5558015,83.776406 23.4033495,83.776406 L3.74171468,83.776406 C1.78253819,83.776406 0.188690305,81.5770234 0.188690305,78.8736156 L0.188690305,34.1070148 C0.188690305,29.4432689 2.00499386,25.0929177 4.92950264,22.75348 L7.91949484,20.3621701 C9.74927107,18.8989409 9.74425798,18.4368458 9.7129262,15.4308499 C9.70885306,15.018898 9.70383998,14.5727968 9.70383998,14.0869269 C9.70383998,13.3352118 10.1456181,12.7261453 10.6904779,12.7261453 C11.2264844,12.7261453 11.662732,13.3155796 11.6767673,14.0503989 C25.7992187,12.8309055 33.9304554,12.6540872 36.0704774,13.519944 Z" id="Combined-Shape" fill="#0F3C6D"></path>
                <path d="M32.0295484,0.992270531 L39.1790903,0.992270531 C40.7130953,1.11376907 41.4626473,1.91326928 41.4277462,3.39077117 C41.3928451,4.86827305 41.3753946,8.73093065 41.3753946,14.978744 L36.3802757,14.978744 L6.14198156,14.978744 C6.14198156,8.73093065 6.12453102,4.86827305 6.08962994,3.39077117 C6.05472886,1.91326928 6.80428084,1.11376907 8.33828588,0.992270531 L17.3138167,0.992270531 L32.0295484,0.992270531 Z" id="Combined-Shape" fill="#22A0B9"></path>
                <rect id="Rectangle" fill="#FFFFFF" x="9.69463325" y="33.963285" width="29.5705768" height="37.963285"></rect>
            </g>
        </g>
    </g>
</svg>