<?xml version="1.0" encoding="UTF-8"?>
<svg width="135px" height="135px" viewBox="0 0 135 135" version="1.1" xmlns="http://www.w3.org/2000/svg" xmlns:xlink="http://www.w3.org/1999/xlink">
    <!-- Generator: Sketch 50.2 (55047) - http://www.bohemiancoding.com/sketch -->
    <title>Desktop HD</title>
    <desc>Created with Sketch.</desc>
    <defs></defs>
    <g id="Desktop-HD" stroke="none" stroke-width="1" fill="none" fill-rule="evenodd">
        <g id="icons/steps/step-2" transform="translate(0.000000, 1.000000)">
            <g id="Group" transform="translate(19.000000, 14.000000)">
                <path d="M66.2966484,65.3554 C66.0647345,65.3053458 65.834903,65.2533885 65.6007173,65.2117084 C64.8553743,64.5164696 63.915413,58.9943358 63.4576433,57.8328131 C62.3084862,54.924724 61.9709331,50.7885002 62.0019812,46.6813954 C62.0661598,39.2855616 63.3582517,31.9580526 63.3582517,31.9580526 C63.3582517,30.9318474 63.3334511,29.9494157 63.2961555,28.9877289 C63.2838499,28.6835976 63.2632143,28.3943113 63.2484475,28.0966509 C63.2134238,27.4472791 63.1763176,26.8081847 63.1202796,26.1879319 C63.0911247,25.8609622 63.0600766,25.5446505 63.0290285,25.2241516 C62.9731799,24.6514789 62.9048363,24.0936511 62.8302452,23.5483844 C62.7908671,23.2423499 62.7514891,22.9363154 62.7060529,22.6386549 C62.6233212,22.0808271 62.5299876,21.5353701 62.4326785,21.0045677 C62.3830773,20.7611485 62.3436992,20.5091648 62.2959912,20.2655553 C62.1469984,19.5411975 61.9874037,18.8354911 61.8156928,18.1590939 C61.6106619,17.3700274 61.4139611,16.6976269 61.2028721,16.0482552 C61.1343391,15.8546998 61.0703498,15.6695185 61.0038994,15.4820533 C60.8590715,15.0344207 60.6953119,14.5932591 60.5319309,14.1707488 C60.4510923,13.9583517 60.3660888,13.7480481 60.2814638,13.5461186 C60.1260342,13.1631949 59.9562164,12.7905484 59.7884811,12.430463 C59.6993126,12.2325302 59.6105227,12.0347878 59.5171891,11.8454194 C59.3329832,11.481147 59.148588,11.1294357 58.9622996,10.7900952 C58.8731311,10.6298458 58.7862343,10.4675029 58.6993376,10.3133437 C58.4488706,9.87617875 58.1794718,9.45157491 57.9185923,9.04980947 C57.5418505,8.48151405 57.2353455,8.06109725 56.9290298,7.66542205 C56.8377787,7.54894623 56.7446345,7.44065417 56.6494078,7.33045891 C56.4256346,7.05354336 56.2039438,6.78500189 55.9743017,6.52902154 C55.8542744,6.40207812 55.7382228,6.28122495 55.6200887,6.15218801 C55.4112715,5.92532661 55.1956389,5.70893281 54.9783024,5.49862925 C54.8582751,5.37986959 54.7403303,5.2654873 54.6199244,5.15510172 C54.3923648,4.94689168 54.1666983,4.75333627 53.9366776,4.55978087 C53.8249802,4.46614345 53.7130936,4.3704125 53.6034788,4.28286532 C53.3136337,4.0539104 53.0215168,3.83332956 52.725235,3.62721304 C52.6797988,3.58972001 52.6283044,3.55013346 52.5847614,3.51892098 C52.2432326,3.27949847 51.8952671,3.05891763 51.549384,2.85070759 C51.4499924,2.79246968 51.3485182,2.73841881 51.2510197,2.6820841 C51.0047176,2.53648933 50.7561438,2.40117183 50.5181717,2.27841545 C50.3877319,2.20951963 50.2635397,2.14937852 50.1372649,2.08676325 C49.9136809,1.97866151 49.6980483,1.87455649 49.4788187,1.77673203 C49.3483789,1.72039732 49.2239973,1.66634645 49.0956401,1.61210526 C48.8720561,1.51637432 48.6545303,1.43320449 48.4288639,1.34984435 C48.3148948,1.30626108 48.1948675,1.26039396 48.0871458,1.21871389 C47.8283488,1.12507647 47.5655761,1.03962281 47.3147305,0.96273354 C47.2443044,0.941988664 47.1699026,0.914772909 47.1034522,0.896121552 C46.7827483,0.80039061 46.4720783,0.717220786 46.1655733,0.63995088 C46.0620167,0.615018965 45.9690618,0.596367609 45.8696701,0.575432412 C45.660285,0.527662101 45.4512784,0.477607951 45.2504126,0.438211718 C45.1322785,0.415183002 45.0143337,0.392344607 44.902447,0.37369325 C44.7244886,0.340387256 44.5463409,0.311268302 44.3787949,0.284052547 C44.2608501,0.26540119 44.1466916,0.248843353 44.0410525,0.236282236 C43.8753997,0.21344384 43.7078537,0.192508644 43.5463659,0.175760487 C43.4384549,0.165483209 43.3371701,0.151018892 43.2375891,0.140360974 C43.0679606,0.125896656 42.904201,0.1091485 42.7427131,0.0988712215 C42.6580882,0.0946841823 42.5749779,0.0842165843 42.5005761,0.080029545 C42.2747203,0.0655652277 42.0677963,0.0613781885 41.864848,0.0509105905 C41.7717038,0.0488170709 41.6908652,0.0488170709 41.597721,0.0488170709 C41.4983293,0.0488170709 41.3906077,0.0467235513 41.2934878,0.0467235513 C40.7965294,0.0467235513 40.3987733,0.0655652277 40.1172582,0.0904971431 C39.9205574,0.103058261 39.8397188,0.111432339 39.7817876,0.117522578 C39.3385954,0.115429058 39.0508328,0.103058261 38.7670459,0.0925906627 C38.4834483,0.100964741 38.1977682,0.115429058 37.9058407,0.130083696 C37.698538,0.1091485 37.6116413,0.100964741 37.5143321,0.0925906627 C37.1355078,0.0634717081 36.7398342,0.0446300317 36.2428758,0.0446300317 L35.9261477,0.0446300317 C35.839251,0.0446300317 35.7646599,0.0446300317 35.6756806,0.0467235513 C35.4727323,0.0530041101 35.2553958,0.0634717081 35.0316226,0.0758425058 C34.9653614,0.080029545 34.8907703,0.0863101039 34.8205336,0.0925906627 C34.6527983,0.103058261 34.4788155,0.117522578 34.2944203,0.138457774 C34.1993829,0.144548013 34.1018844,0.157109131 34.0087402,0.169670248 C33.8368399,0.188321605 33.6649396,0.211160001 33.4848987,0.234188716 C33.381342,0.248843353 33.2777853,0.26540119 33.1721462,0.280055828 C32.9837753,0.309174782 32.7974869,0.340387256 32.6026792,0.377689969 C32.5013943,0.396531646 32.3978377,0.413089483 32.294281,0.431931159 C32.0686146,0.477607951 31.8469238,0.529755621 31.6108449,0.579619452 C31.5322781,0.598461128 31.457687,0.617112485 31.3728728,0.633860642 C31.0559553,0.708846707 30.7350622,0.794110052 30.4120865,0.894028033 C29.9855542,1.02725201 29.7100973,1.11670239 29.4325579,1.21452685 C29.327108,1.25201989 29.219197,1.29369996 29.1116647,1.33538003 C28.8797508,1.42273689 28.6499194,1.5142808 28.4159229,1.61210526 C28.2979782,1.66006589 28.1777615,1.71221356 28.0618992,1.76626443 C27.829796,1.86408889 27.6001539,1.97866151 27.3661575,2.09095029 C27.2501059,2.14709468 27.1319717,2.20342939 27.0161094,2.26585434 C26.7614774,2.39907831 26.4985154,2.54467308 26.2397184,2.69673874 C26.1547149,2.74869609 26.0657357,2.79246968 25.9788389,2.84671087 C25.6308734,3.05682411 25.2810147,3.27949847 24.9288841,3.52310802 C24.5229874,3.81239437 24.2145893,4.0434428 23.9080842,4.28914588 C23.8045276,4.3704125 23.7009709,4.45986289 23.5974142,4.54303271 C23.3594422,4.74096547 23.1252564,4.94689168 22.8914493,5.15928876 C22.7733152,5.26967433 22.6574529,5.38196311 22.5434838,5.49025517 C22.3178174,5.70474577 22.1002916,5.92951365 21.8808726,6.16265561 C21.768986,6.28122495 21.6572886,6.3999846 21.5474845,6.52064746 C21.3114056,6.78290837 21.0794917,7.05982392 20.8496602,7.34302003 C20.764846,7.44902825 20.6798424,7.54685271 20.5950282,7.65723829 C20.2803825,8.05691021 19.9738775,8.47732702 19.67362,8.92495957 C19.3381494,9.43501708 19.0772699,9.86590148 18.8101429,10.3154372 C18.7251394,10.4633158 18.6465726,10.6235653 18.5594866,10.7775341 C18.3711157,11.1252487 18.1806623,11.481147 17.9983496,11.8496065 C17.9052053,12.0389748 17.8183086,12.230627 17.7291401,12.426276 C17.5615941,12.7926419 17.3959413,13.1692851 17.2300992,13.5565862 C17.1494499,13.7606092 17.0623639,13.9625387 16.9837971,14.1707488 C16.8181443,14.5995396 16.658739,15.0448883 16.5055812,15.5007047 C16.4453782,15.6860763 16.3751414,15.8609804 16.3191034,16.0503487 C16.1057426,16.7040978 15.9050661,17.380495 15.7206709,18.0882949 C15.5302175,18.8480522 15.3666472,19.5516651 15.2237125,20.2760229 C15.1780869,20.5154454 15.1368157,20.7651452 15.0891077,21.0045677 C14.9917985,21.5353701 14.8965718,22.0850142 14.8115683,22.6449355 C14.7661321,22.9405024 14.7288365,23.2465369 14.6875653,23.5504779 C14.6148674,24.0957446 14.5465238,24.6537627 14.4948401,25.2302419 C14.4596271,25.5507407 14.4306615,25.8672428 14.4016959,26.196306 C14.3520947,26.8123717 14.3064692,27.4514662 14.2712562,28.0987444 C14.2545962,28.3984983 14.2339606,28.6877847 14.2235482,28.9959127 C14.1841701,29.9556963 14.1593695,30.9402215 14.1593695,31.9622397 C14.1593695,31.9643332 15.4493789,39.2937453 15.51564,46.687676 C15.5550181,50.7968743 15.2133,54.9289111 14.0620603,57.8430903 C13.600315,59.0025196 12.6684943,64.6664417 11.9210689,65.3554 C11.680825,65.4010768 11.4551585,65.4509406 11.2294921,65.5051818" id="Fill-1" fill="#20395F"></path>
                <path d="M52,61 L39,77 L26,61 C19.743572,65.071701 10.8350816,63.2799918 5.33124364,67.2260603 C-1.48653598,72.1134684 0.179571502,97.4689334 0.179571502,97.4689334 L38.566648,97.3151591 L77.1563296,97.4689334 C77.1563296,97.4689334 78.8224371,72.1134684 72.0030621,67.2260603 C66.7117999,63.4311529 58.1319934,64.5627384 52,61 Z" id="Fill-6" fill="#89C8D4"></path>
                <ellipse id="Oval-3" stroke="#20395F" stroke-width="3" fill="#20395F" cx="83.3731343" cy="88" rx="18.858209" ry="19"></ellipse>
                <polyline id="Path-7" stroke="#F7F7F7" stroke-width="5" points="74.9365672 87.5365854 80.5839621 93.097561 92.1123043 81.9756098"></polyline>
                <circle id="Oval-4" fill="#FFFFFF" cx="57" cy="79" r="4"></circle>
                <path d="M57.7341605,29.4447885 L55.739742,31.4894836 L30.7961141,17.8582502 C27.9944939,17.5812556 26.0038491,18.7706442 24.5924726,20.4911067 C24.5603958,20.5307061 24.5315268,20.5723156 24.4996387,20.613121 C24.4056727,20.7307131 24.3117067,20.8495113 24.2218919,20.9725307 C23.1952475,22.3938872 22.516164,24.0900273 22.0674671,25.6126939 C21.9972756,25.8533054 21.9302918,26.0896956 21.8702894,26.3194525 C21.4317815,28.0332816 21.2861154,29.3621726 21.2551708,29.6821838 C20.962329,29.501876 20.6670343,29.3897112 20.3864572,29.4403663 C20.2626787,29.4624776 20.1451269,29.5173539 20.0375755,29.5985628 C19.44642,30.050438 19.1203694,31.3443529 19.1626352,32.9679276 C19.176032,33.5098562 19.2318832,34.088168 19.3318872,34.6839678 C19.6371823,36.4910666 20.2770189,37.9994614 20.9745936,38.7470254 C21.3193243,39.1162846 21.6846217,39.2988036 22.0231257,39.2350827 C22.192189,39.2021168 22.3387985,39.1140735 22.4748417,38.9822095 C23.8488583,43.5387517 26.2648028,48.0834342 29.3302071,51.3836509 C31.5650124,55.7013907 30.0402352,57.5287917 30.0402352,57.5287917 C29.7141845,57.9885064 26.3441646,60.600388 26,61 L39.0532216,77 L52,61 C51.4109201,60.400984 48.6419141,58.2876124 48.1049118,57.5287917 C48.1049118,57.5287917 46.5603224,55.6768672 48.860036,51.2972157 C51.8856273,48.0030294 54.268363,43.4997554 55.6335114,38.9822095 C55.7676676,39.1184957 55.9244663,39.2041269 56.0897558,39.2350827 C56.3807107,39.2877479 56.6901569,39.1603062 56.9935651,38.8919551 C57.7426514,38.2105241 58.4504152,36.6164981 58.7723147,34.6839678 C58.8796775,34.0539959 58.9355287,33.4427181 58.9457178,32.8744569 C58.9766624,31.1706784 58.5949492,29.8460087 57.9345457,29.5129316 C57.8726565,29.4821768 57.8003895,29.4580553 57.7341605,29.4447885 Z" id="Fill-4" fill="#FFFFFF"></path>
                <path d="M58,76 L58,63" id="Path-9" stroke="#FFFFFF" stroke-width="2"></path>
                <path d="M9.03919385,78.389111 C9.38921647,76.4666064 11.4893522,70 18.8398273,70 C26.1903025,70 28.8302964,77.5152453 28.9904835,78.7386573 C29.1506706,79.9620693 27.2403703,80.4863888 26.8903477,79.4377499 C26.5403251,78.389111 25.0433563,72.2720509 19.0195969,72.2720509 C12.9958376,72.2720509 11.4893522,77.6900184 11.1393296,78.9134305 C10.789307,80.1368425 8.68917122,80.3116156 9.03919385,78.389111 Z" id="Path-8" fill="#FFFFFF"></path>
                <path d="M10,78 C9.33333333,80.315598 9,83.4756708 9,87.4802183 C9,91.4847658 10.3333333,93.3103683 13,92.9570259" id="Path-10" stroke="#FFFFFF"></path>
                <path d="M10.5105721,92 C12.0060412,92 14,92.3333333 14,93.6666667 C14,95 13.3353471,95 12.255286,95 C11.175225,95 9.01510299,92 10.5105721,92 Z" id="Path-11" fill="#FFFFFF"></path>
                <path d="M26,78 C25.3333333,80.315598 25,83.4756708 25,87.4802183 C25,91.4847658 26.3333333,93.3103683 29,92.9570259" id="Path-10" stroke="#FFFFFF" transform="translate(27.000000, 85.500000) scale(-1, 1) translate(-27.000000, -85.500000) "></path>
                <path d="M24.5105721,92 C26.0060412,92 28,92.3333333 28,93.6666667 C28,95 27.3353471,95 26.255286,95 C25.175225,95 23.015103,92 24.5105721,92 Z" id="Path-11" fill="#FFFFFF" transform="translate(26.000000, 93.500000) scale(-1, 1) translate(-26.000000, -93.500000) "></path>
                <path d="M19,71 L19,63" id="Path-12" stroke="#FFFFFF" stroke-width="2"></path>
            </g>
        </g>
    </g>
</svg>